<?xml version="1.0" encoding="UTF-8"?>
<svg width="60px" height="60px" viewBox="0 0 60 60" version="1.1" xmlns="http://www.w3.org/2000/svg" xmlns:xlink="http://www.w3.org/1999/xlink">
    <!-- Generator: Sketch 41 (35326) - http://www.bohemiancoding.com/sketch -->
    <title>controller</title>
    <desc>Created with Sketch.</desc>
    <defs>
        <polygon id="path-1" points="25.113661 0.112154839 0.137096403 0.112154839 0.137096403 22.41105 25.113661 22.41105 25.113661 0.112154839"></polygon>
    </defs>
    <g id="Page-1" stroke="none" stroke-width="1" fill="none" fill-rule="evenodd">
        <g id="Desktop-HD" transform="translate(-690.000000, -806.000000)">
            <g id="Group" transform="translate(504.000000, 806.000000)">
                <g id="controller" transform="translate(186.000000, 1.000000)">
                    <g id="Group-3" transform="translate(28.135593, 0.058813)">
                        <mask id="mask-2" fill="white">
                            <use xlink:href="#path-1"></use>
                        </mask>
                        <g id="Clip-2"></g>
                        <path d="M0.179423729,22.41105 C0.156711864,22.1999048 -0.340237288,17.2021758 2.76298305,13.7142629 C4.64535593,11.5987081 7.3680678,10.5260565 10.8556949,10.5260565 C15.554,10.5260565 18.5867119,9.5325629 20.1272203,7.48881452 C21.4524746,5.73092419 21.7238305,3.26864677 21.7238305,0.112069355 L25.113661,0.112069355 C25.113661,3.4418371 24.8365424,6.89094032 22.8256949,9.55837903 C20.6002712,12.510479 16.6850169,13.9454113 10.8556949,13.9454113 C8.38111864,13.9454113 6.51162712,14.630821 5.29959322,15.9826629 C3.20484746,18.3191081 3.54637288,22.0120113 3.55010169,22.0489403 L0.179423729,22.41105 Z" id="Fill-1" fill="#2ECC71" mask="url(#mask-2)"></path>
                    </g>
                    <g id="Group-6" transform="translate(0.000000, 20.574942)" fill="#1F1F1F">
                        <path d="M16.0164576,3.42036355 C9.05408475,3.42036355 3.38984746,9.13393452 3.38984746,16.1569474 C3.38984746,23.1799603 9.05408475,28.8935313 16.0164576,28.8935313 L43.9835763,28.8935313 C50.9459492,28.8935313 56.6101864,23.1799603 56.6101864,16.1569474 C56.6101864,9.13393452 50.9459492,3.42036355 43.9835763,3.42036355 L16.0164576,3.42036355 Z M43.9835763,32.3128861 L16.0164576,32.3128861 C7.18510169,32.3128861 1.69491525e-05,25.0653926 1.69491525e-05,16.1569474 C1.69491525e-05,7.24850226 7.18510169,0.00100870968 16.0164576,0.00100870968 L43.9835763,0.00100870968 C52.8149322,0.00100870968 60.0000169,7.24850226 60.0000169,16.1569474 C60.0000169,25.0653926 52.8149322,32.3128861 43.9835763,32.3128861 L43.9835763,32.3128861 Z" id="Fill-4"></path>
                    </g>
                    <polygon id="Fill-7" fill="#2ECC71" points="9.27830508 39.309929 22.4557627 39.309929 22.4557627 35.2190129 9.27830508 35.2190129"></polygon>
                    <polygon id="Fill-9" fill="#2ECC71" points="13.8391525 43.910671 17.8947458 43.910671 17.8947458 30.6184419 13.8391525 30.6184419"></polygon>
                    <path d="M40.8073729,39.1307719 C40.8073729,40.9897042 39.3134746,42.4966139 37.4705932,42.4966139 C35.6278814,42.4966139 34.1338136,40.9897042 34.1338136,39.1307719 C34.1338136,37.2718397 35.6278814,35.76493 37.4705932,35.76493 C39.3134746,35.76493 40.8073729,37.2718397 40.8073729,39.1307719" id="Fill-10" fill="#2ECC71"></path>
                    <path d="M51.5544407,35.3983752 C51.5544407,37.2573074 50.0605424,38.7642171 48.217661,38.7642171 C46.3749492,38.7642171 44.8808814,37.2573074 44.8808814,35.3983752 C44.8808814,33.5394429 46.3749492,32.0325332 48.217661,32.0325332 C50.0605424,32.0325332 51.5544407,33.5394429 51.5544407,35.3983752" id="Fill-11" fill="#2ECC71"></path>
                </g>
            </g>
        </g>
    </g>
</svg>