<?xml version="1.0" encoding="UTF-8"?>
<svg width="60px" height="60px" viewBox="0 0 60 60" version="1.1" xmlns="http://www.w3.org/2000/svg" xmlns:xlink="http://www.w3.org/1999/xlink">
    <!-- Generator: Sketch 41 (35326) - http://www.bohemiancoding.com/sketch -->
    <title>dog</title>
    <desc>Created with Sketch.</desc>
    <defs>
        <polygon id="path-1" points="0 42.9573018 59.8769697 42.9573018 59.8769697 0 0 0"></polygon>
    </defs>
    <g id="Page-1" stroke="none" stroke-width="1" fill="none" fill-rule="evenodd">
        <g id="Desktop-HD" transform="translate(-520.000000, -806.000000)">
            <g id="Group" transform="translate(504.000000, 806.000000)">
                <g id="dog" transform="translate(16.000000, 11.000000)">
                    <path d="M8.11427273,4.03690035 L2.92336364,11.5701986 C1.82790909,9.17879509 1.55366667,7.00918105 1.51578788,5.61960211 C1.49154545,4.75054947 2.19609091,4.03690035 3.06881818,4.03690035 L8.11427273,4.03690035 Z" id="Fill-1" fill="#1F1F1F"></path>
                    <path d="M3.06880303,5.54565719 C3.06243939,5.54565719 3.0504697,5.54565719 3.0385,5.55802912 C3.03001515,5.56662912 3.03016667,5.57175895 3.03031818,5.57764316 C3.04940909,6.2786186 3.13501515,7.19519754 3.3785,8.24288877 L5.23713636,5.54565719 L3.06880303,5.54565719 Z M2.92365152,13.0789554 C2.88001515,13.0789554 2.83607576,13.0771449 2.79213636,13.073373 C2.24804545,13.0262993 1.7715303,12.6912011 1.54486364,12.1964747 C0.344712121,9.57694491 0.0430454545,7.19625368 0.00122727273,5.66062561 C-0.0218030303,4.83276246 0.285318182,4.04880456 0.866227273,3.45404667 C1.44940909,2.85702561 2.23168182,2.52811333 3.06880303,2.52811333 L8.11425758,2.52811333 C8.67668182,2.52811333 9.19274242,2.83831684 9.45471212,3.33379754 C9.71698485,3.82942912 9.68183333,4.42871333 9.3635,4.89054842 L4.17274242,12.4238467 C3.88865152,12.8360432 3.42001515,13.0789554 2.92365152,13.0789554 L2.92365152,13.0789554 Z" id="Fill-3" fill="#1F1F1F"></path>
                    <path d="M35.8293636,26.4481835 C12.8890606,26.4481835 4.52330303,18.6980747 1.5449697,12.1964747 L4.30178788,10.9440432 C6.91148485,16.6404116 14.4993636,23.4306396 35.8293636,23.4306396 L35.8293636,26.4481835 Z" id="Fill-5" fill="#1F1F1F"></path>
                    <mask id="mask-2" fill="white">
                        <use xlink:href="#path-1"></use>
                    </mask>
                    <g id="Clip-8"></g>
                    <polygon id="Fill-7" fill="#1F1F1F" mask="url(#mask-2)" points="8.11424242 5.54564211 40.3490909 5.54564211 40.3490909 2.52809825 8.11424242 2.52809825"></polygon>
                    <path d="M33.4003182,9.28344351 C33.4003182,10.5467382 32.3718333,11.5707418 31.1033485,11.5707418 C29.8347121,11.5707418 28.8062273,10.5467382 28.8062273,9.28344351 C28.8062273,8.02014877 29.8347121,6.99614526 31.1033485,6.99614526 C32.3718333,6.99614526 33.4003182,8.02014877 33.4003182,9.28344351" id="Fill-9" fill="#2ECC71" mask="url(#mask-2)"></path>
                    <path d="M46.8698485,3.0174986 C42.6643939,3.0174986 39.1860606,6.16057228 38.7787879,10.3285547 L36.9927273,28.6052144 L36.9883333,28.6359933 C36.5904545,31.4831968 37.4493939,34.3598214 39.3448485,36.5279267 C41.240303,38.6961828 43.9828788,39.9397126 46.8698485,39.9397126 C49.7568182,39.9397126 52.4993939,38.6961828 54.3948485,36.5279267 C56.290303,34.3598214 57.1492424,31.4831968 56.7513636,28.6359933 L56.7439394,28.5742846 L54.9609091,10.3285547 C54.5536364,6.16057228 51.075303,3.0174986 46.8698485,3.0174986 M46.8698485,42.9572565 C43.1060606,42.9572565 39.530303,41.3360811 37.0592424,38.509246 C34.5951515,35.6905582 33.4748485,31.9536319 33.9825758,28.2520109 L35.7625758,10.0363056 C36.3218182,4.31458982 41.0968182,-4.52631579e-05 46.8698485,-4.52631579e-05 C52.6428788,-4.52631579e-05 57.4178788,4.31458982 57.9771212,10.0363056 L59.7571212,28.2520109 C60.2648485,31.9536319 59.1445455,35.6905582 56.6804545,38.509246 C54.2093939,41.3360811 50.6336364,42.9572565 46.8698485,42.9572565" id="Fill-10" fill="#2ECC71" mask="url(#mask-2)"></path>
                </g>
            </g>
        </g>
    </g>
</svg>