<?xml version="1.0" encoding="UTF-8"?>
<svg width="60px" height="60px" viewBox="0 0 60 60" version="1.1" xmlns="http://www.w3.org/2000/svg" xmlns:xlink="http://www.w3.org/1999/xlink">
    <!-- Generator: Sketch 41 (35326) - http://www.bohemiancoding.com/sketch -->
    <title>lover</title>
    <desc>Created with Sketch.</desc>
    <defs></defs>
    <g id="Page-1" stroke="none" stroke-width="1" fill="none" fill-rule="evenodd">
        <g id="Desktop-HD" transform="translate(-860.000000, -806.000000)">
            <g id="Group" transform="translate(504.000000, 806.000000)">
                <g id="lover" transform="translate(356.000000, 0.000000)">
                    <path d="M19.265509,10.2148883 C11.9197289,10.2148883 5.94351407,16.1574496 5.94351407,23.4618638 C5.94351407,29.4550845 13.688578,36.9239891 23.4945115,46.3800545 C25.4649974,48.2794768 27.6859182,50.4201417 29.9246394,52.64 C32.2542046,50.3298093 34.4990639,48.1638147 36.6734885,46.0661798 C46.6816726,36.4080872 53.9059182,29.4364687 53.9059182,23.4618638 C53.9059182,16.1574496 47.9297033,10.2148883 40.5839233,10.2148883 C36.9489361,10.2148883 33.5545627,11.6422016 31.0261228,14.2337657 L29.9246394,15.3627684 L28.823156,14.2337657 C26.2948696,11.6422016 22.9004962,10.2148883 19.265509,10.2148883 Z M29.9246394,55.8898311 C29.2336419,55.8898311 28.5840767,55.6221907 28.0953299,55.1363488 C25.7585524,52.8127302 23.4208542,50.5593025 21.3582967,48.5710736 C11.0310844,38.6123815 2.87446036,30.746594 2.87446036,23.4618638 C2.87446036,14.474703 10.2274527,7.16311717 19.265509,7.16311717 C23.2293453,7.16311717 26.9610077,8.54297548 29.9246394,11.0771662 C32.8882711,8.54297548 36.620087,7.16311717 40.5839233,7.16311717 C49.6219795,7.16311717 56.9749719,14.474703 56.9749719,23.4618638 C56.9749719,30.7273678 49.3598824,38.0761853 38.8202916,48.2472807 C36.5395243,50.447455 34.1912379,52.7130899 31.7541023,55.1363488 C31.2615192,55.6234114 30.6128747,55.8898311 29.9246394,55.8898311 Z" id="Fill-1" fill="#1F1F1F"></path>
                    <polygon id="Fill-3" fill="#2ECC71" points="2.87432225 20.6037275 5.94337596 20.6037275 5.94337596 3.29759128 2.87432225 3.29759128"></polygon>
                    <path d="M7.72519182,3.2975455 C7.72519182,5.11868992 6.24038363,6.59513678 4.40892583,6.59513678 C2.57746803,6.59513678 1.09265985,5.11868992 1.09265985,3.2975455 C1.09265985,1.47640109 2.57746803,-4.57765667e-05 4.40892583,-4.57765667e-05 C6.24038363,-4.57765667e-05 7.72519182,1.47640109 7.72519182,3.2975455" id="Fill-5" fill="#2ECC71"></path>
                    <polygon id="Fill-6" fill="#2ECC71" points="2.87432225 43.6262888 5.94337596 43.6262888 5.94337596 26.3201526 2.87432225 26.3201526"></polygon>
                    <path d="M1.09265985,43.6262278 C1.09265985,41.8050834 2.57746803,40.3286365 4.40892583,40.3286365 C6.24038363,40.3286365 7.72519182,41.8050834 7.72519182,43.6262278 C7.72519182,45.4473722 6.24038363,46.9238191 4.40892583,46.9238191 C2.57746803,46.9238191 1.09265985,45.4473722 1.09265985,43.6262278" id="Fill-7" fill="#2ECC71"></path>
                    <polygon id="Fill-8" fill="#FFFFFF" points="1.53468031 26.32 7.28332481 26.32 7.28332481 20.6037275 1.53468031 20.6037275"></polygon>
                    <path d="M3.06905371,24.7941144 L5.74879795,24.7941144 L5.74879795,22.1296131 L3.06905371,22.1296131 L3.06905371,24.7941144 Z M0,27.8458856 L8.81785166,27.8458856 L8.81785166,19.077842 L0,19.077842 L0,27.8458856 Z" id="Fill-9" fill="#1F1F1F"></path>
                    <polygon id="Fill-10" fill="#2ECC71" points="53.9059335 20.6037275 56.9749872 20.6037275 56.9749872 3.29759128 53.9059335 3.29759128"></polygon>
                    <path d="M58.7566803,3.2975455 C58.7566803,5.11868992 57.2718721,6.59513678 55.4404143,6.59513678 C53.6089565,6.59513678 52.1241483,5.11868992 52.1241483,3.2975455 C52.1241483,1.47640109 53.6089565,-4.57765667e-05 55.4404143,-4.57765667e-05 C57.2718721,-4.57765667e-05 58.7566803,1.47640109 58.7566803,3.2975455" id="Fill-11" fill="#2ECC71"></path>
                    <polygon id="Fill-12" fill="#2ECC71" points="53.9059335 43.6262888 56.9749872 43.6262888 56.9749872 26.3201526 53.9059335 26.3201526"></polygon>
                    <path d="M52.1241637,43.6262278 C52.1241637,41.8050834 53.6089719,40.3286365 55.4404297,40.3286365 C57.2718875,40.3286365 58.7566957,41.8050834 58.7566957,43.6262278 C58.7566957,45.4473722 57.2718875,46.9238191 55.4404297,46.9238191 C53.6089719,46.9238191 52.1241637,45.4473722 52.1241637,43.6262278" id="Fill-13" fill="#2ECC71"></path>
                    <polygon id="Fill-14" fill="#FFFFFF" points="52.5661381 26.32 58.3147826 26.32 58.3147826 20.6037275 52.5661381 20.6037275"></polygon>
                    <path d="M54.100665,24.7941144 L56.7802558,24.7941144 L56.7802558,22.1296131 L54.100665,22.1296131 L54.100665,24.7941144 Z M51.0316113,27.8458856 L59.8493095,27.8458856 L59.8493095,19.077842 L51.0316113,19.077842 L51.0316113,27.8458856 Z" id="Fill-15" fill="#1F1F1F"></path>
                </g>
            </g>
        </g>
    </g>
</svg>